<svg id="Capa_1" data-name="Capa 1" xmlns="http://www.w3.org/2000/svg" viewBox="0 0 608.18 188.32"><defs><style>.cls-1{fill:#005300;}.cls-2{fill:#fe5400;}.cls-3{fill:#fe3a00;}.cls-4{fill:#fe7600;}.cls-5{fill:#fe6a00;}.cls-6{fill:#fc8a00;}.cls-7{fill:#f1ca00;}.cls-8{fill:#f5b900;}.cls-9{fill:#035604;}.cls-10{fill:#f9a000;}.cls-11{fill:#035603;}.cls-12{fill:#f3b603;}.cls-13{fill:#015301;}.cls-14{fill:#f6a000;}.cls-15{fill:#cf9035;}.cls-16{fill:#f59401;}.cls-17{fill:#f3be00;}.cls-18{fill:#f3c000;}.cls-19{fill:#c78d30;}.cls-20{fill:#595b07;}.cls-21{fill:#8f7a11;}.cls-22{fill:#33855c;}.cls-23{fill:#096329;}.cls-24{fill:#195a1a;}.cls-25{fill:#176121;}.cls-26{fill:#2f6625;}.cls-27{fill:#5ea586;}.cls-28{fill:#247d45;}.cls-29{fill:#335f18;}.cls-30{fill:#316224;}.cls-31{fill:#3e8e6f;}.cls-32{fill:#3c7534;}.cls-33{fill:#2d6f23;}.cls-34{fill:#4b5a08;}.cls-35{fill:#f6a300;}.cls-36{fill:#2d8840;}.cls-37{fill:#339265;}.cls-38{fill:#1c7b3e;}.cls-39{fill:#2f7c25;}.cls-40{fill:#567913;}.cls-41{fill:#337d26;}.cls-42{fill:#6c4505;}.cls-43{fill:#8ecbb2;}.cls-44{fill:#0f6826;}.cls-45{fill:#53a987;}.cls-46{fill:#9b4405;}.cls-47{fill:#278358;}.cls-48{fill:#2d611a;}.cls-49{fill:#10561e;}.cls-50{fill:#f5ac00;}.cls-51{fill:#378f55;}.cls-52{fill:#083308;}.cls-53{fill:#63a483;}.cls-54{fill:#446811;}.cls-55{fill:#18804f;}.cls-56{fill:#278154;}.cls-57{fill:#46a988;}.cls-58{fill:#588d2f;}.cls-59{fill:#589f81;}.cls-60{fill:#6fb39a;}.cls-61{fill:#6bb399;}.cls-62{fill:#41a67f;}.cls-63{fill:#a69001;}.cls-64{fill:#d09b01;}.cls-65{fill:#0c501c;}.cls-66{fill:#276927;}.cls-67{fill:#fff;}.cls-68{opacity:0.8;}</style></defs><path class="cls-1" d="M138.53,168.51c-6.43,2.11-12.58,5-19.4,6-5.85.84-11.22-.45-16.41-2.86-9.61-4.44-19.13-4.65-28.78-.07-7.85,3.71-15.22,4.57-23.46-.59-8.51-5.33-17.68-2.39-25.91,2.3-3.66,2.08-7.23,3.27-11.34,2.15-2.58-.71-3.38-1.6-1.39-4.34,12.21-16.77,24.53-33.44,38.07-49.18,1-1.12,2.13-2.12,2.29-3.73,4.22-7,9.74-12.86,17-16.65,3.8-2,7.74-.57,10.9,2.39s5.8,6.75,8.55,10.24c3.32,4.69,7.17,9,10.61,13.55,1.83,2.45,3.58,2.73,6.23,1,3-2,5.87-4.13,8.89-6.07a1.63,1.63,0,0,1,1.18.77c1.61,10.58,3.65,21.08,5.62,31.6-1-10-4.54-19.62-5.15-29.73a3.56,3.56,0,0,1,.52-1.38c9-4.56,16.65-.58,24.17,4,1.65,1,2.92,2.9,5.27,1.84a1.82,1.82,0,0,1,1.61,1.26,47.08,47.08,0,0,1-3.31,16.95c-1.8,4.81-2.77,10-5.34,14.43C137.68,164.5,139.79,166.55,138.53,168.51Z"/><path class="cls-2" d="M54,43.09c2.89-7,7.86-12.56,13.08-17.91,7.32-1.84,14.79-1.59,22.26-1.59q36.58,0,73.18,0c8.09,0,16.2-.37,24.26.8a45.47,45.47,0,0,1,13.93,17.88c0,2.47-1.91,2.84-3.73,3.21a22.94,22.94,0,0,1-4.46.25q-65.25,0-130.5,0C59.11,45.71,55.84,46.38,54,43.09Z"/><path class="cls-3" d="M186.74,24.41c-.19.85-.49,1.67-1.54,1.6-29.59-1.91-59.21-.32-88.81-.82-6.62-.11-13.25.13-19.87-.07-3.17-.1-6.32,2.7-9.48.06C99-7.94,155.47-8.58,186.74,24.41Z"/><path class="cls-4" d="M46,62.84c.18-4.35,2.07-8.14,4-11.9,4.22,2.29,8.77,2.67,13.49,2.63,14-.11,27.91,0,41.86-.06,23.9-.19,47.79.1,71.69,0,9.62,0,19.25.33,28.85-.72a28.07,28.07,0,0,1,3.9,12.07c.64,5.55-.09,6.3-6.36,6.51A38,38,0,0,1,197,70c-4.76-2.28-9.6-4.17-15-2.74-3.83-.21-7.17,1.77-10.8,2.41a1.74,1.74,0,0,1-1.63-1.22c.94-3.31,4.37-4.06,6.17-6-4.23.61-7.24,5.14-12.18,4.9-.79.37-1.38,1.07-2.22,1.38a3.81,3.81,0,0,1-3.81-1.13c-2.4-3.51-5.87-5.13-9.93-5.59.46,1.76,2,3.43.32,5.28-2.07.44-3.63-.73-5.26-1.66-4.11-3.4-8.88-3.8-13.86-3.06a.69.69,0,0,0,.41.82c1.1,1,4.44.8,1.83,3.62-2.37,1.5-5,1.62-7.69,1.63q-35.08.09-70.17,0c-2.85,0-6.24.52-7.43-3.37A3.15,3.15,0,0,1,46,62.84Z"/><path class="cls-5" d="M205.88,52.81c-2.31,2.4-5.32,2.3-8.3,2.3H140.82c-27.3,0-54.6,0-81.9,0-3.46,0-7.58.74-8.93-4.12a16.64,16.64,0,0,1,4-7.85c1.8,1.1,3.79,1,5.79,1q67.57,0,135.15,0c2.07,0,4.44.66,5.77-1.83C203.72,45.15,205,48.89,205.88,52.81Z"/><path class="cls-6" d="M46,62.84c-.11,3.2,1.47,4.29,4.6,4.28q37.57-.11,75.14,0a14.07,14.07,0,0,0,6.15-1.68c5.36-.34,8.61,3.54,12.48,6.2.9.94,2.16,2,1.36,3.31-.91,1.48-2.61.87-4,.63a22.34,22.34,0,0,0-11-.1c-5.73,1.38-11.51,2.62-16,6.92-2.65,1.18-5.47,1.26-8.3,1.26q-26.84,0-53.67,0c-1,0-2,0-3-.09-5.6-.49-6.55-1.75-5.81-7.7C43.85,71.38,44.14,67,46,62.84Z"/><path class="cls-7" d="M201,122c-8.12,15.23-20.54,25.91-35.67,33.71-.73.38-1.48.72-2.22,1.07a2.75,2.75,0,0,1-2.37-1.57c-3-5.66-7.94-10.11-10-16.31.66-6.29.32-12.77,3.62-18.55,14.38,0,28.76-.11,43.14.15A4.4,4.4,0,0,1,201,122Z"/><path class="cls-8" d="M201,122,166.81,122c-4.27,0-8.56.24-12.73-1-1.58-6.7-.1-13,2.44-19.19,4.53-2.33,9.65-.36,14.27-2a12.81,12.81,0,0,1,3.42-.41c8.45.46,16.91,0,25.35.26,4,.12,7-3.11,11-2.55C208.84,106,206.07,114.44,201,122Z"/><path class="cls-9" d="M0,188.32c1.91-3.62,2.75-6.41,7.52-3.43,5.91,3.69,12.37,2.59,18.41-.89,9-5.21,18-6.74,27.48-.46,6.41,4.23,13.48,2.56,20-.6,7.64-3.72,15.53-4.81,23.68-2.63,4,1.07,7.6,3.36,11.57,4.42,8.38,2.24,16.64.55,24.19-3s14.21-3.1,21,1.68c5.85,4.15,12.54,5.13,18.77,1.51,4.63-2.68,5.93-.71,7.29,3.4Z"/><path class="cls-10" d="M44,75.84c-.59,4.87,1.83,6.3,6.39,6.27,19.39-.14,38.78,0,58.17-.1a57.29,57.29,0,0,0,7.32-1,1,1,0,0,1,1.23-.18c1,1.29,2.12,2.5,2.06,4.29a67.08,67.08,0,0,1-8.3,6.23c-3.47.64-6-3.53-10.56-1C97.51,92,92.36,91,88.35,92c-.32.06-.72.35-.93.26-.61-.24-1.15,0-.49.09s-.39.32.24.15a19.37,19.37,0,0,1,11.26.08c1.27,1.49,0,2-1,2.36-1.51.56-3.2.43-4.7,1.08-3.13.31-4.93,2.85-7.33,4.39-12.07,2.2-24.17-.9-36.24.24-2.16.2-3.5-.43-3.92-2.63C43.6,90.7,42.07,83.36,44,75.84Z"/><path class="cls-11" d="M141.53,176.59c-5.24-.67-9.51,3.31-14.63,4.62-8.52,2.17-16.59,2.33-24.67-1.6-8.88-4.31-18-4.15-26.93-.12-8.65,3.9-16.5,4.64-25.4-.63-8-4.71-16.8-1.85-24.6,2.47-5.75,3.19-11.4,4.49-17.37.92-1.15-.69-3-1.29-1.62-3.29,1-1.41,1.46-3.27,4.09-1.88,5.59,2.95,10.73,1.26,16-1.73,8.29-4.76,16.81-6.71,25.62-.67,5.47,3.76,11.51,3.6,17.59,1.33,5.57-2.07,10.88-4.93,17-5.24a28.53,28.53,0,0,1,14.92,3.14c10.52,5.51,21.1,4,31.14-.57,7.72-3.51,14.26-3.22,20.82,1.91,5.35,4.18,11.23,4.78,17.24,1.75,2-1,2.76-.75,3.83,1,1.24,2.07.28,2.89-1.39,3.82-6.07,3.37-12,3.37-17.8-.58C151.27,178.48,147,176.46,141.53,176.59Z"/><path class="cls-12" d="M45.2,98c.92.54,1.21,1.91,2.81,1.57,8.76-1.89,17.46.42,26.2.58,2.18,0,4.22.57,6.08-.84,2.23-1.68,4.07.12,6.06.58.75,1.71,1.34,1.86,3.41,1.08,1.33-.5,2.83-1.3,3.53.88,0,1.26-1.26,2.22-.88,3.69,2.21-1.09,2.51-4.33,5.33-4.57,5.34-.27,4.08,4,4.85,7a4.76,4.76,0,0,1,.19,3c.62-.61.15-1.47.45-2.16.58-1.79.33-3.73,1-5.49,1.4-2.24,3.31-1.74,5.27-1a3.5,3.5,0,0,1,1.16,1,16.44,16.44,0,0,1,2.32,7.18,4.19,4.19,0,0,1-1,2.91c-4.37,2.71-9.1.75-13.65.9-3.46.11-6.93-.09-10.36.63-2.09-2.54-4.21-5.05-6.25-7.63-5.12-6.51-10.71-7.26-17-1.7-4.44,3.93-8.39,8.4-12.56,12.63C48.21,112,46.33,105.16,45.2,98Z"/><path class="cls-13" d="M151.63,139.89q5.72,8.46,11.44,16.93c2.42,4.67,4.72,9.41,7.34,14,1.26,2.2.71,3.14-1.36,4.13A12,12,0,0,1,156,173.74a34.25,34.25,0,0,0-11.06-5.39c-1.37-.42-1.4-1.35-.58-2.2,2.32-2.4,2.18-5.37,2.14-8.35a42.36,42.36,0,0,1,2.27-15.55C149.46,141.15,150,139.88,151.63,139.89Z"/><path class="cls-14" d="M210.52,97.05c-11.82,6.84-24.39,4-36.83,2.8-.73-2.2.73-4.11.82-6.21.32-2.26,1.08-4.46.34-6.81-1.12-3.52,1.07-4,3.73-3.7,3.08.33,5.42,2.05,7.68,4.09,1.57,1.42,2.73,4,5.64,2.87,1.18-1.8,1.23-4.37,3.64-5.31,1.58-.23,2.39,1,3.32,1.88,1.35,1.23,2.37.61,3.44-.33,3.25-.23,6.22-1.62,9.36-2.28C212.17,88.46,211.37,92.76,210.52,97.05Z"/><path class="cls-15" d="M149.88,142c-1.89,6.35-2.26,12.88-2.15,19.43,0,2.54.43,4.86-3,5.53-1.18.23.51.86.24,1.41-2.15.55-4.27,1.48-6.44.16-2.84-2.52-1.26-4.74-.14-7.62,3.76-9.64,7-19.49,8.63-29.78-.08-9.56,3.52-18.48,4.93-27.79.3-2,.54-4.39,2.85-5.52,1.06,0,1.53.62,1.86,1.49C153.85,113.43,153,127.88,149.88,142Z"/><path class="cls-16" d="M211.66,84.05c-2.41,3.7-6.21,3-9.75,3.06a17.23,17.23,0,0,1-7.45-6.22c.51-2.26,2.55-1.42,4.35-2.08A18.19,18.19,0,0,0,189,75.28c-4.34-.58-8.85,1.3-13.07-.93-.41-2.89,2.38-2.2,3.63-3.25A39.24,39.24,0,0,1,193.31,69a9,9,0,0,1,1.43.34,58.31,58.31,0,0,1,7.92,3.51c.16-1.06-.47-1.76-.31-2.57,3.54-.3,8.14.86,7.43-5.35A46.76,46.76,0,0,1,211.66,84.05Z"/><path class="cls-17" d="M146.15,130c-.37,2.57-1.26,2.88-3.29,1.1a32,32,0,0,0-15.69-7.68c-3.56-.64-6.81.57-10.22.52-2.62-5.08-2.69-10.79-4-16.2a12,12,0,0,1-.07-5.27c.86-2.36,3.11-3.27,4.6-1.82,2.47,2.41,5.87,2.61,8.43,4.56,2.57,2.19,5.16,4.38,6.86,7.34.33-.94.13-2.12.81-3.08,5.24-4.7,14.45-4.12,17.13,1.07C149.55,117.12,148.84,123.81,146.15,130Z"/><path class="cls-18" d="M88,114.87c1.49-2.29,3.66-2.14,6.08-2.08,5.89.13,11.78.89,17.67.19,2.79,2.92,3.31,6.34,2.27,10.11-2.34,5-8,5.76-11.79,8.93-.86.72-1.9-.92-2.59-1.82Q93.81,122.55,88,114.87Z"/><path class="cls-19" d="M116.78,125a180.1,180.1,0,0,0,6.83,28.35c.6,1.76,1.33,3.34-1,3.88s-4.69-.64-4.59-3c.42-10.52-2.91-20.6-3.3-31-.39-.81-.46-1.82.39-2.11,1-.35,1.31.7,1.36,1.51A4.73,4.73,0,0,0,116.78,125Z"/><path class="cls-20" d="M146.15,130l3.72-19c.56-7.56,1.31-15.08,4.76-22a1.34,1.34,0,0,1,1.56.25c1.63,3.28.37,6.13-1.3,8.93-3.15,10.06-4.45,20.54-7,30.74a16.25,16.25,0,0,1-.9,2.23Z"/><path class="cls-21" d="M116.78,125c-.31-.7-.6-1.41-.92-2.1a9,9,0,0,0-.56-.94c-.18.42-.37.84-.56,1.26a1.6,1.6,0,0,0-.72-.08Q112.88,118,111.75,113c.1-1,.19-2,.29-3.08.77-.59.94-1.76,2-2.05,1.3,5.31,2.83,10.57,2.89,16.11C116.89,124.29,116.83,124.62,116.78,125Z"/><path class="cls-22" d="M141.92,74.28c1,.27,2.31,1.27,3.1.41s-.81-1.35-1.18-2.11c-1-2-1.58-4.14-2.77-6.07-.82-1.32-.11-2.15,1.54-1.54a9.41,9.41,0,0,1,4.91,2.17c1.5-1,3.08-.09,5.61-.65-5,.5-4.51-5-8.13-5.43,3.84-1.65,9.9,1.09,12.82,5.8,1.9,5.56-4.22,4.65-5.95,7.3-.14.21-.9-.3-1.39,0a1.76,1.76,0,0,1,.14.39c0,5.64-4.12,4.83-7.68,4.91-1.42.07-2.83.66-4.25,0-1.67-1.36-1.95-2.82-.3-4.41C139.47,74.28,140.81,74.86,141.92,74.28Z"/><path class="cls-23" d="M142.63,78.17c2.23-.38,4.91,1.46,6.64-1.54.49-.84,1.62-1.26.23-2.19-2.51-1.66.62-1.75.68-1.74,3.08.74,4.06-3,6.76-3.19.35,0,.59-1.72.89-2.65,1.2.7,2.37,1.54,3.9,1a8.71,8.71,0,0,1,2.41,3.59,2.84,2.84,0,0,1-.19,1.29c-1.06,1.92-1.59,4.26-4,5.2a7.51,7.51,0,0,1-3.33.72c-.66,0-1-.74-1.74-.66,2.12,3.59-.34,3.37-2.63,3.06-2.47-.34-5,.06-7.41-.41C143.77,80.17,142.66,79.66,142.63,78.17Z"/><path class="cls-24" d="M142.61,65c-1.25.25-1.87.76-.59,1.79a4.89,4.89,0,0,1,1.82,5.82,65.57,65.57,0,0,0-12-7.17c-1.72-.68-3.87-.42-5-2.31,2.27-1.45,4.38.83,6.61.22-2.22.45-4.33-1.72-6.59-.19l-.77-1C129.63,59.49,139.67,61.21,142.61,65Z"/><path class="cls-25" d="M179.7,72.08c-.82,1.59-3.45,0-3.89,2.2.87,3-2.66,3.8-3.18,6.12a2.13,2.13,0,0,1-2-.09c-1.75-1.69-2.15-4.43-6.22-3.81-3.36.51-.48-2.83-.61-4.43v0c1.44-1.66,2.52-3.74,4.87-4.39a1.66,1.66,0,0,1,1.24.41,1.46,1.46,0,0,0,1,1.45,26.5,26.5,0,0,1,7.82,1.55A2.79,2.79,0,0,1,179.7,72.08Z"/><path class="cls-26" d="M169.92,68.11l-1.16,0c-.59.32-1.29.25-1.9.55-1.22.62-1.92,2.73-3.74,1.65s.12-2.81-.62-4.12c6.2.62,10.23-6.35,17.28-5Z"/><path class="cls-27" d="M182,66.2c5.38-1.54,10.23,0,14.91,2.53-.28,1.21-1,1.74-2.23,1.38h.08a14.87,14.87,0,0,0-8.93-.23c-1.84.53-3.78,1-5.52-.44C178.49,67.11,180.35,66.7,182,66.2Z"/><path class="cls-28" d="M182,66.2c-.55.87-2.76,1.07-1.17,2.83-.11,1.35-1.15,2.07-2,2.93-2.78-.35-5.63-.43-7.91-2.4A14.41,14.41,0,0,1,182,66.2Z"/><path class="cls-29" d="M194.69,70.11l2.23-1.37,5.43,1.49c.83,1.49,3.05,2,3,4.92Z"/><path class="cls-30" d="M145,61.06c4.46,0,4.78,5.58,8.8,6.38-2.17-.49-4.32,1.93-6.27-.3C149,64.17,146.29,62.89,145,61.06Z"/><path class="cls-31" d="M162.5,66.15c2.26.57.11,2.23,1,3.49,1.74-.13,2.93-3.31,5.25-1.57-1.73,1.25-2.14,4.12-4.95,4-1.16-1.17-2.49-2.26-2.08-4.2Z"/><path class="cls-32" d="M116.89,81.19l-1-.13c1.53-5.49,7.13-4,10.66-6.12,1.13-.67,2.87-.31,4.34-.42.44,3.15-2.91,3.54-4,5.55C123.63,81.46,120.4,82.59,116.89,81.19Z"/><path class="cls-33" d="M126.91,79c.26-2.42,3.22-2.45,4-4.45,3.65-1.62,7.35-.66,11-.24-.91,1-2.2.65-3.3,1-3,1.14-3.84,5.51-7.78,5.33C129.4,80.37,127.89,80.3,126.91,79Z"/><path class="cls-34" d="M149.88,142c.63-10.54,2.73-20.88,4.24-31.3.57-3.91,1.17-7.82,1.75-11.72.29-3.53,0-7.21,2.54-10.18a2.34,2.34,0,0,1,1.87,1.3,20,20,0,0,1-3,11.92c-1.87,6.18-2.11,12.64-3.18,19q-1.23,9.47-2.45,18.93Z"/><path class="cls-35" d="M157.26,102q1.2-6,2.39-12c-.23-3,1.45-4.48,4.17-5.11,4.51-1,6.61,1.34,7.63,5.38.77,3,.58,6.13.76,9.2a3.35,3.35,0,0,1-.33,1.53C167.11,102.7,162.15,101.8,157.26,102Z"/><path class="cls-36" d="M171.88,101a3.47,3.47,0,0,1-.1-.71c-.83-1.33-.49-2.81-.44-4.21.12-3.18,1.74-3.42,4.11-1.93,0,2.09-1,3.9-1.76,5.75Z"/><path class="cls-37" d="M109.87,103c-1.51.36-3.05-.92-4.54.08a1,1,0,0,1-1.32.21c-2.42-2.33-2.41-2.34-7.25-1.27a15.93,15.93,0,0,1-1.53,2.44c-1.32,1.43-2.2,4.81-4.53,3-1.22-.93,0-4.14,2.27-5.37-.5-1.8.18-3.91-1.89-5.32-.83-.56.45-1.29,1-1.79,1.72-1.75,4.64.55,6.17-1.84-2.6-1-5.3-.86-8-.73-.92,0-2.47.71-2.11-1.37,4.52-2.08,9.19-2.06,14-.79.25-2.25-2.45-2.14-2.6-4.58L110.71,91C111.42,95,112.46,99.13,109.87,103Z"/><path class="cls-38" d="M109.87,103c.86-4-.37-8.08.84-12a18.07,18.07,0,0,1,8.11-6.25,1.35,1.35,0,0,1,1.26.31c0,2.93-2.72,4.64-3.23,7.33-.06.31-.41.54-.25.9a4.36,4.36,0,0,1,3.33-2.69s.22,0,0-.06a7.2,7.2,0,0,1-1-.15c-.86-2.35,1.09-3.21,2.33-4.45a2.77,2.77,0,0,1,1.33-.31,6.88,6.88,0,0,1,1.9.74c1.24.79,3.19.55,3.66,2.48-.71,1.61.77,4.31-2.33,4.76a6.21,6.21,0,0,1-1.43-.25c-.88-.27-2.09.09-2.16.58-.11.82,1.62.49,1.73,1.61-1,1.9-2.4,1.12-3.65.7,1.94,1.45,5,.89,6.72,3.11.22,1.63-2,1.11-2.11,2.38.33,1.26,1.48,2.14,1.48,3.5a1.77,1.77,0,0,1-.61,1.11c-1.79-.08-3-3.67-5.37-.78-.72.86-1.29-.09-1.38-1-.36-3.83-2.32-4.18-5.23-2.35-1.12,1-2.26,2-3.92,1.07Z"/><path class="cls-39" d="M92.11,95c0,.61-1.25,1.72.28,1.67,1.36,0,2.71-1.17,4.11.25-.72,1.83-2.71.54-3.74,1.45.71,1.25,5,2.26.21,3.74-4-2.5-4.73,2.37-7.26,3.31-1.92-2.1,2.75-3.41.64-5.49C85.77,95.36,89.78,96.16,92.11,95Z"/><path class="cls-6" d="M119.91,85.05l-1.09-.34c-1.29-.82-2.2-1.85-1.93-3.52,3.29-1,6.85-.7,10-2.22,1.32.25,2.84-.45,3.94.83a17.15,17.15,0,0,1-8,5.94l-.93.35C120.83,86.6,120.35,85.86,119.91,85.05Z"/><path class="cls-40" d="M88.15,91.05c3.18,1.66,7.16-.57,10.13,2.1-5-.33-10-1.36-14.58,2.15C84.29,92.51,86.11,91.64,88.15,91.05Z"/><path class="cls-41" d="M96.76,102l6.68-3.26c1.19,1.12-1.5,4.19,1.88,4.32L104,109.21c-2.75-1-1.26-2.93-1.3-4.57-.93,1.2.48,3.06-.85,4.23a3.34,3.34,0,0,1-.94-3.14C101.34,102.35,99.61,101.6,96.76,102Z"/><path class="cls-42" d="M109.94,103.22l3.92-1.08c.06,1.91.13,3.81.2,5.71-.23,1.12-.59,2.11-2,2.05Z"/><path class="cls-43" d="M101.85,108.87c.08-1.79.17-3.58.28-5.86,1.51,2.18,0,4.67,1.87,6.2-.11.85.36,2.33-.67,2.31S102.13,109.9,101.85,108.87Z"/><path class="cls-44" d="M175.45,94.1c-5.59-.57-3,3.74-3.67,6.14-2.16-2.71-.81-5.94-1.2-8.89-.56-4.29-2.49-6.21-6.79-5.59-.88-.44-2.68,0-1.92-2,.55-.59,1.55-1,1.55-1.85,0-4.35.5-6.67,4.26-1.69.56.74,2.12-.55,3.26-.17h1.82c1.69-2,4.14,1.72,5.77-.77,3.83-.72,7.65.6,11.48.07a4.92,4.92,0,0,1,1.34.45c1,1,3.3,1.27,2.42,3.6a3.66,3.66,0,0,1-3.67.19c2.17,2.2,3.38,4.45,3.13,7.26-2.69,4.44-4.7.86-6.1-.89-3-3.72-6.35-6.13-11.92-6C177.21,87.53,176.39,90.82,175.45,94.1Z"/><path class="cls-45" d="M194.64,83.89,190.73,80c1.77-1.19,3-.14,4.1,1.08,3.18,1,5.12,3.53,7.08,6,.15.78.67,1.78.37,2.28-.57.91-1.29.16-1.91-.37-1.52-1.32-3.42-2.22-4.44-4.08-.82,0-1.67-.06-1.85-1.14-.1-.66.43-.79.15-.19S195.29,83.73,194.64,83.89Z"/><path class="cls-16" d="M194.64,83.89l1.29,1c-1.73,1.58-2.09,3.8-2.7,5.9-.34-3.53-3.44-5.37-5.4-8.39C190.54,82.25,192.56,83.24,194.64,83.89Z"/><path class="cls-46" d="M158.75,89.07c-2.05,3-.82,6.91-2.88,9.89l-1-.82c-.5-3.12,1.66-6,.8-9.17-.62-1.65.18-2.53,1.71-2.45S159.7,87.48,158.75,89.07Z"/><path class="cls-47" d="M178.87,79.86c-1.93,3.68-4.05,1-6.11.18-1-1.46-1.18-2.67.82-3.44,1.08-.42,2.16-.9,2.22-2.32,4.59-.34,9.17-.87,13.77-.29a.89.89,0,0,1,.47,1.13c-2.64,3.69-6.74,2.83-10.39,3.33A4.85,4.85,0,0,0,178.87,79.86Z"/><path class="cls-48" d="M189.71,74.9a3.52,3.52,0,0,0-.14-.91c5,.39,9.19,2.16,12.53,6.27-2.75,1.55-5.23-1.64-7.27.85L190.73,80l.06,0c-1.16-1.26-3.42.57-4.28-1.53a2.5,2.5,0,0,1,2.81-2.06C191.73,76.5,189,75.29,189.71,74.9Z"/><path class="cls-49" d="M178.86,72a2.7,2.7,0,0,1,2-2.93,3.32,3.32,0,0,0,4,.42c3.47-1.54,6.75-1,10,.66-5.13-.18-10.08,1-15.07,2A4.86,4.86,0,0,1,178.86,72Z"/><path class="cls-50" d="M155,89c-1.75,7.32-2.57,14.86-5.08,22-.32-.74-.44-1.77-1-2.18-3.07-2.19-12.41-.75-15,2.19-1.58.47-2.18-.61-2.75-1.73a3.71,3.71,0,0,1-.21-1.94c1.06-4.14,1.08-4.14-2.45-7-.58-.76-1.14-1.52-.64-2.55,1.81-1.37,3.64-.08,5.64.06-2.3-1-3.94-2.17-3.08-4.87a4.76,4.76,0,0,1,2.13-1.94c6.07-2.65,11-7.56,17.64-9.07a6.6,6.6,0,0,1,3.21.32C156.47,83.93,155.84,86.42,155,89Z"/><path class="cls-51" d="M131.42,108.69l2.45,2.31c.21,1.4.43,2.8.75,4.87-3.25-3.54-6-6.55-8.78-9.57a.9.9,0,0,1,.4-.5,8.78,8.78,0,0,0,3.88-1.21C132.31,105.4,131,107.34,131.42,108.69Z"/><path class="cls-52" d="M155,89c-.43-2.16.74-4.89-2.17-6.17,1.46-1.55,4.07-2,4.33-4.7l2.68-1c2.06,2,.38,5,2,7l2,1.65c-2.48.31-3.19,2.35-4.13,4.19l-.9-.88c.06-1-.17-1.94-1.44-2s-1.54.85-1.62,1.88l-.37,0Z"/><path class="cls-53" d="M122.87,85.74a19.26,19.26,0,0,1,8-5.94c1.56-.89,3.64-.93,4.17-3.39.39-1.86,2.2-1.35,3.6-1.14-1,1.46-.21,2.73.42,4-2.19,2.75-5.58,3.11-8.55,4.3-2.76-.22-3.59,3-6,3.37l-.65,0A1.07,1.07,0,0,1,122.87,85.74Z"/><path class="cls-54" d="M130.06,83l9-3.67,3.6-1.12L145,80.24a1.64,1.64,0,0,1-1.15,1.6,9.09,9.09,0,0,1-1.35.4c-2.36.21-4.07,1.91-6.17,2.67s-4.56,1.88-6.8-.07A1.48,1.48,0,0,1,130.06,83Z"/><path class="cls-55" d="M161.77,84.11c-.85-.45-2.87.88-2.32-1.72a34.71,34.71,0,0,0,.34-5.32c2.6-.66,1.5-4.28,4-5,.95,1.14-1.29,6.6,3.67,2.73.19-.15,3.78,2.41,3.46,5.25-.85,1.37-2.92.74-3.51,2.61l-2.35-4.8C163.61,80.14,168,85.32,161.77,84.11Z"/><path class="cls-56" d="M143.94,81.08l1-.84c3.27-.67,6.54-.95,9.9.31.56-1.82-2.31-2.81-.7-4.52l2.94,2.08c1.67,4.44-.75,5.11-4.33,4.7l-3.05,0c-1.48-.46-2.86.22-4.29.37S142.8,83,143.94,81.08Z"/><path class="cls-57" d="M126.86,63.13c3.25-2.9,6.25.64,9.4.22-3.23,2.06-6.26-.63-9.42-.25Z"/><path class="cls-56" d="M129.88,85.1c4.94.8,8.17-4,12.86-3.95.88.79,1,2.23.28,2.55-3.93,1.89-6.6,5.6-10.63,7.31-1.86.08-3.49-.34-4.53-2.05-.93-1.5-3.18-.32-4-2h0C126,86.79,127.52,84.62,129.88,85.1Z"/><path class="cls-58" d="M131.42,108.69c-1.12-1,0-2.85-1.49-3.64-2.47-.87-4.44-2.55-6.5-4.07.79-1.69,2.34-.66,3.51-1,.83-.67,1.65-.35,2.47,0,3.12,1.29,5,3.85,7.33,6.85C134.52,107.12,131.21,104,131.42,108.69Z"/><path class="cls-59" d="M127.86,89l5.54,1.1a1.56,1.56,0,0,1-.87,2l-1.15,1c-1.84.73-3.18,3.25-5.69,1.6a1.46,1.46,0,0,1,.17-1.34C128.72,92.89,124.87,89.37,127.86,89Z"/><path class="cls-60" d="M123.43,101a8,8,0,0,1,6.5,4.06c-.49,3.91-2.44.64-3.69.76C125.57,104,123.19,103.27,123.43,101Z"/><path class="cls-61" d="M129.41,100l-2.47,0c-2.1-1.58-5.16-1.09-7-3.41.9-1.46,3.19.17,4-1.59l.67-.19a4.67,4.67,0,0,1,3.08,3.54Z"/><path class="cls-62" d="M118.67,90.15c1.5.33,2.56-1.64,4.59-.59-3.79,1.38-6,4.38-9.07,6.53l2-4.11C116.68,90.9,117.14,89.81,118.67,90.15Z"/><path class="cls-63" d="M118.67,90.15,116.22,92c0-3,2.47-4.61,3.69-6.93l2,1Z"/><path class="cls-64" d="M125.86,93.36l0,.46c-.23,1.08-1.42.6-2,1.2l0,0-3.69-.28C121.8,92.09,123.06,89.63,125.86,93.36Z"/><path class="cls-45" d="M186.61,78.21c1,1.37,3.3.1,4.18,1.87-4,1.14-7.95,0-11.92-.22L177.79,78C180.75,76.91,183.67,77.89,186.61,78.21Z"/><path class="cls-65" d="M186.61,78.21c-3,1.1-5.86-1-8.82-.19.09-1,.54-1.23,1.61-1.07a14.42,14.42,0,0,0,10.31-2c1,1,2.86.91,3.39,2.65C191,79,188.54,76.1,186.61,78.21Z"/><path class="cls-66" d="M132.53,92.09l.86-2c2-2.57,4.1-4.85,7.32-5.9,1.27-.42,2.75-1.07,2-3l1.19-.07c0,2.32,1.47,1.22,2.24.76,1.62-1,2.72-.68,3.57,1C143.76,85.44,138.79,90,132.53,92.09Z"/><path class="cls-38" d="M123.86,95l2-1.2c2.15,2,3.54-1.82,5.57-.72-1.25,4.79,4.42,2.82,5.46,5.82-3.18,1.66-6.12-1.69-9.18-.57C125.64,98.1,125.72,95.46,123.86,95Z"/><path class="cls-38" d="M129.88,85.1c-1.49,2.26-3.77,2-6,1.9,1.94-1.53,2.91-4.57,6.2-4Z"/><path class="cls-67" d="M253.72,76.86c0-14,10.84-24.36,26.26-24.36,5.65,0,12.21,1.64,14.77,3.28L295,63.6l-.65.13c-2.56-6-8.8-10-16.61-10-10.44,0-18.51,7-18.51,20.35-.07,12.34,7.42,24.16,21.07,24.16,7.09,0,12.6-3.75,15.16-10.84l.73.07L295.15,96c-3.09,1.71-9.33,3.55-16.68,3.55C263.37,99.57,253.72,91.17,253.72,76.86Z"/><path class="cls-67" d="M301.31,83.49c0-10.7,8.08-17.86,17.27-17.86,8.27,0,13.06,5.38,13.26,11.62H306.17a22.77,22.77,0,0,0-.19,3c0,9,5.57,15.16,14.11,15.16,5.05,0,8.66-2.3,11.68-5.71l.59.59c-3.34,4.6-8.46,9.26-15.49,9.26C309.65,99.57,301.31,94.32,301.31,83.49Zm25.28-7.09c-.66-4.4-4.2-9.59-10.18-9.59-5.58-.06-9,4.07-10,9.59Z"/><path class="cls-67" d="M336.3,98.06c2-.59,2.63-2.1,2.63-7.49V75.48c0-4.6-.86-5.25-2.63-6v-.72l7.16-3.16.59.46v8.21A14.92,14.92,0,0,1,348.84,68a11.84,11.84,0,0,1,7.48-2.36c2.63,0,4.27.66,4.27,1.77a4,4,0,0,1-3.81,3.74c-1.77,0-4.33-.72-8.2-1.83a12.78,12.78,0,0,0-4.47,8.2h-.06V90.57c0,5.39.59,6.9,2.62,7.49v.85H336.3Z"/><path class="cls-67" d="M363.87,98.06c2-.59,2.63-2.1,2.63-7.49V75.48c0-4.6-.86-5.25-2.63-6v-.72L371,65.56l.6.46v8.21A14.92,14.92,0,0,1,376.41,68a11.84,11.84,0,0,1,7.48-2.36c2.63,0,4.27.66,4.27,1.77a4,4,0,0,1-3.81,3.74c-1.77,0-4.33-.72-8.21-1.83a12.81,12.81,0,0,0-4.46,8.2h-.06V90.57c0,5.39.59,6.9,2.62,7.49v.85H363.87Z"/><path class="cls-67" d="M388.49,83a17.15,17.15,0,0,1,17.19-17.33c8.14,0,17.14,5,17.14,16.67,0,11.23-9.39,17.27-17.14,17.27C397.35,99.57,388.49,94.38,388.49,83Zm19.16,15.23c7,0,10.18-5.65,10.18-12,0-8.47-6-19.76-14.57-19.3-6.7.26-9.72,5.77-9.72,12.34C393.54,87.56,398.92,98.19,407.65,98.19Z"/><path class="cls-67" d="M439.16,53.81V53H449.4v.85c-2,.6-1.51,1.91.46,6.9L462.53,93.2,475,60.77c1.64-4.33,1.38-6.5-.85-7V53h7.35v.85c-1.77.6-3.41,1.91-5.32,6.9l-14.9,38.53h-1.84L444.08,60.71C442.11,55.72,440.54,54.41,439.16,53.81Z"/><path class="cls-67" d="M477.62,83.49c0-10.7,8.08-17.86,17.27-17.86,8.27,0,13.06,5.38,13.26,11.62H482.48a22.77,22.77,0,0,0-.19,3c0,9,5.58,15.16,14.11,15.16,5.05,0,8.66-2.3,11.68-5.71l.59.59c-3.34,4.6-8.46,9.26-15.49,9.26C486,99.57,477.62,94.32,477.62,83.49ZM502.9,76.4c-.66-4.4-4.2-9.59-10.18-9.59-5.58-.06-9,4.07-10,9.59Z"/><path class="cls-67" d="M512.61,98.06c2-.59,2.63-2.1,2.63-7.49V75.48c0-4.6-.86-5.25-2.63-6v-.72l7.16-3.16.59.46v8.21A14.92,14.92,0,0,1,525.15,68a11.84,11.84,0,0,1,7.48-2.36c2.63,0,4.27.66,4.27,1.77a4,4,0,0,1-3.81,3.74c-1.77,0-4.33-.72-8.2-1.83a12.78,12.78,0,0,0-4.47,8.2h-.06V90.57c0,5.39.59,6.9,2.62,7.49v.85H512.61Z"/><path class="cls-67" d="M537.23,83.29c0-9.13,6.23-17.53,17.52-17.59a16.65,16.65,0,0,1,8.93,2.56V55.78c0-4.59-.85-5.25-2.62-6V49l7.22-3.15.52.46V90.57c0,5.39.59,6.9,2.63,7.49v.85h-5.78a1.8,1.8,0,0,1-2-2V93.2c-3.22,3.35-7.29,6.5-11.95,6.43C543.59,99.57,537.23,92.54,537.23,83.29Zm17.46,13.13c3.41,0,6.43-1.78,9-4.4V75.94c-.59-4.27-5.45-9-11-9-7,0-10.57,5.45-10.57,12.41C542.15,87,545.76,96.42,554.69,96.42Z"/><path class="cls-67" d="M575.3,83.49c0-10.7,8.07-17.86,17.26-17.86,8.27,0,13.07,5.38,13.26,11.62H580.16a21.18,21.18,0,0,0-.2,3c0,9,5.58,15.16,14.11,15.16,5.06,0,8.67-2.3,11.69-5.71l.59.59c-3.35,4.6-8.47,9.26-15.49,9.26C583.64,99.57,575.3,94.32,575.3,83.49Zm25.27-7.09c-.66-4.4-4.2-9.59-10.17-9.59-5.58-.06-9,4.07-10,9.59Z"/><g class="cls-68"><path class="cls-67" d="M286.27,155.39c1.43-.45,1.85-1.58,1.85-5.61V122.36h-2.26c-4.15,0-5.95,1.18-7.52,4.72l-.51-.1.28-5.41h23.75l.28,5.41-.51.1c-1.57-3.54-3.37-4.72-7.52-4.72H292v27.42c0,4,.41,5.16,1.84,5.61V156h-7.52Z"/><path class="cls-67" d="M315.8,154.55v-8.86c-1.43,6.05-5.31,10.83-9.88,10.83a6.14,6.14,0,0,1-6.45-6.45c0-5.12,4.84-7,10.33-8.66l6-1.73c-.24-4.77-2.54-7-6.46-7-2.77,0-5.45,1.38-7.75,4.39l-.42-.4c2.63-3.49,6-5.61,10-5.61,5.58,0,8.17,3.3,8.17,8.86v9.85c0,4,.41,5.16,1.84,5.61V156h-4C316.26,156,315.8,155.49,315.8,154.55Zm-8.17-.93c4.94,0,8.12-6.65,8.17-11.82v-1.48L310,142c-3.41,1-7.1,2.66-7.05,6.69C302.93,151.89,305,153.62,307.63,153.62Z"/><path class="cls-67" d="M323.78,155.39c1.43-.45,1.84-1.58,1.84-5.61V138.45c0-3.44-.6-3.93-1.84-4.52v-.55l5-2.36.41.35v6.15a11.12,11.12,0,0,1,3.37-4.68,8,8,0,0,1,5.26-1.77c1.84,0,3,.49,3,1.33a2.93,2.93,0,0,1-2.67,2.81,24.25,24.25,0,0,1-5.77-1.38,9.81,9.81,0,0,0-3.13,6.15h0v9.8c0,4,.42,5.16,1.85,5.61V156h-7.29Z"/><path class="cls-67" d="M356.76,154.55v-8.86c-1.43,6.05-5.3,10.83-9.87,10.83a6.15,6.15,0,0,1-6.46-6.45c0-5.12,4.84-7,10.33-8.66l6-1.73c-.23-4.77-2.54-7-6.46-7-2.76,0-5.44,1.38-7.75,4.39l-.41-.4c2.63-3.49,6-5.61,10-5.61,5.58,0,8.16,3.3,8.16,8.86v9.85c0,4,.42,5.16,1.85,5.61V156h-4C357.22,156,356.76,155.49,356.76,154.55Zm-8.16-.93c4.93,0,8.11-6.65,8.16-11.82v-1.48L351,142c-3.41,1-7.11,2.66-7.06,6.69C343.89,151.89,346,153.62,348.6,153.62Z"/><path class="cls-67" d="M370.55,154.3v8.77c0,4,.42,5.17,1.85,5.61v.64h-7.29v-.64c1.39-.44,1.85-1.58,1.85-5.61V138.45c0-3.44-.6-3.93-1.85-4.52v-.55l5-2.36.41.35V135c2.5-2,5.68-3.89,9.23-3.89,5.35,0,9.36,4.73,9.36,12,0,6.89-4.24,13.34-11.9,13.39A11.89,11.89,0,0,1,370.55,154.3Zm8.17,1.24c4.84,0,7.1-3.89,7.1-9.6,0-5.47-2-13.2-8.48-13.2-2.68,0-4.85,1.43-6.79,3v12.16C370.55,151.25,374.57,155.54,378.72,155.54Z"/><path class="cls-67" d="M392.33,144.07c0-7.68,5.76-13,12.08-13,5.72,0,12,3.74,12,12.5,0,8.42-6.59,13-12,13C398.56,156.52,392.33,152.63,392.33,144.07Zm13.47,11.42c4.93,0,7.15-4.24,7.15-9,0-6.35-4.2-14.82-10.24-14.47-4.71.19-6.83,4.33-6.83,9.25C395.88,147.51,399.66,155.49,405.8,155.49Z"/><path class="cls-67" d="M422.36,149.48V132.1h-2.95v-.68l5.9-6.06H426v6.06h7l-.23.68H426v17.38c0,3.35,1.29,4.63,3.27,4.63a5.78,5.78,0,0,0,4.43-2.56l.42.44c-2,2.41-4.34,4.53-7.06,4.53C424.11,156.52,422.36,154.6,422.36,149.48Z"/><path class="cls-67" d="M435.05,144.07c0-7.68,5.76-13,12.08-13,5.72,0,12,3.74,12,12.5,0,8.42-6.59,13-12,13C441.27,156.52,435.05,152.63,435.05,144.07Zm13.47,11.42c4.93,0,7.15-4.24,7.15-9,0-6.35-4.2-14.82-10.24-14.47-4.71.19-6.83,4.33-6.83,9.25C438.6,147.51,442.38,155.49,448.52,155.49Z"/><path class="cls-67" d="M473.2,155.39c1.38-.45,1.84-1.58,1.84-5.61v-22c0-4-.46-5.17-1.84-5.61v-.64h7.47v.64c-1.43.44-1.85,1.58-1.85,5.61v9.55H496.4v-9.55c0-4-.46-5.17-1.85-5.61v-.64H502v.64c-1.43.44-1.85,1.58-1.85,5.61v22c0,4,.42,5.16,1.85,5.61V156h-7.48v-.64c1.39-.45,1.85-1.58,1.85-5.61V138.16H478.82v11.62c0,4,.42,5.16,1.85,5.61V156H473.2Z"/><path class="cls-67" d="M505.86,144.07c0-7.68,5.76-13,12.08-13,5.72,0,12,3.74,12,12.5,0,8.42-6.59,13-12,13C512.09,156.52,505.86,152.63,505.86,144.07Zm13.47,11.42c4.93,0,7.15-4.24,7.15-9,0-6.35-4.2-14.82-10.24-14.47-4.71.19-6.83,4.33-6.83,9.25C509.41,147.51,513.19,155.49,519.33,155.49Z"/><path class="cls-67" d="M535.89,149.48V132.1h-2.95v-.68l5.9-6.06h.65v6.06h7l-.23.68h-6.78v17.38c0,3.35,1.29,4.63,3.27,4.63a5.78,5.78,0,0,0,4.43-2.56l.42.44c-2,2.41-4.34,4.53-7.06,4.53C537.64,156.52,535.89,154.6,535.89,149.48Z"/><path class="cls-67" d="M548.58,144.46c0-8,5.67-13.39,12.13-13.39,5.81,0,9.18,4,9.32,8.71H552a18.57,18.57,0,0,0-.14,2.27c0,6.74,3.92,11.37,9.92,11.37,3.55,0,6.09-1.72,8.21-4.28l.41.44c-2.35,3.44-5.95,6.94-10.88,6.94S548.58,152.58,548.58,144.46Zm17.75-5.32c-.46-3.29-3-7.18-7.14-7.18-3.93-.05-6.32,3-7.06,7.18Z"/><path class="cls-67" d="M573.21,155.39c1.38-.45,1.85-1.58,1.85-5.61V123.69c0-3.45-.6-3.94-1.85-4.53v-.54l5-2.37.41.35v33.18c0,4,.42,5.16,1.85,5.61V156h-7.29Z"/></g></svg>