<svg id="Capa_1" data-name="Capa 1" xmlns="http://www.w3.org/2000/svg" viewBox="0 0 227.09 260.33"><defs><style>.cls-1{fill:#005300;}.cls-2{fill:#fe5400;}.cls-3{fill:#fe3a00;}.cls-4{fill:#fe7600;}.cls-5{fill:#fe6a00;}.cls-6{fill:#fc8a00;}.cls-7{fill:#f1ca00;}.cls-8{fill:#f5b900;}.cls-9{fill:#035604;}.cls-10{fill:#f9a000;}.cls-11{fill:#035603;}.cls-12{fill:#f3b603;}.cls-13{fill:#015301;}.cls-14{fill:#f6a000;}.cls-15{fill:#cf9035;}.cls-16{fill:#f59401;}.cls-17{fill:#f3be00;}.cls-18{fill:#f3c000;}.cls-19{fill:#c78d30;}.cls-20{fill:#595b07;}.cls-21{fill:#8f7a11;}.cls-22{fill:#33855c;}.cls-23{fill:#096329;}.cls-24{fill:#195a1a;}.cls-25{fill:#176121;}.cls-26{fill:#2f6625;}.cls-27{fill:#5ea586;}.cls-28{fill:#247d45;}.cls-29{fill:#335f18;}.cls-30{fill:#316224;}.cls-31{fill:#3e8e6f;}.cls-32{fill:#3c7534;}.cls-33{fill:#2d6f23;}.cls-34{fill:#4b5a08;}.cls-35{fill:#f6a300;}.cls-36{fill:#2d8840;}.cls-37{fill:#339265;}.cls-38{fill:#1c7b3e;}.cls-39{fill:#2f7c25;}.cls-40{fill:#567913;}.cls-41{fill:#337d26;}.cls-42{fill:#6c4505;}.cls-43{fill:#8ecbb2;}.cls-44{fill:#0f6826;}.cls-45{fill:#53a987;}.cls-46{fill:#9b4405;}.cls-47{fill:#278358;}.cls-48{fill:#2d611a;}.cls-49{fill:#10561e;}.cls-50{fill:#f5ac00;}.cls-51{fill:#378f55;}.cls-52{fill:#083308;}.cls-53{fill:#63a483;}.cls-54{fill:#446811;}.cls-55{fill:#18804f;}.cls-56{fill:#278154;}.cls-57{fill:#46a988;}.cls-58{fill:#588d2f;}.cls-59{fill:#589f81;}.cls-60{fill:#6fb39a;}.cls-61{fill:#6bb399;}.cls-62{fill:#41a67f;}.cls-63{fill:#a69001;}.cls-64{fill:#d09b01;}.cls-65{fill:#0c501c;}.cls-66{fill:#276927;}.cls-67{font-size:40px;fill:#006837;font-family:FONTSPRINGDEMO-TheSeasonsBold, FONTSPRING DEMO - The Seasons;font-weight:700;}.cls-68{letter-spacing:-0.05em;}.cls-69{letter-spacing:-0.09em;}.cls-70{letter-spacing:-0.05em;}.cls-71{opacity:0.8;font-size:30px;font-family:FONTSPRINGDEMO-TheSeasonsRegular, FONTSPRING DEMO - The Seasons;}.cls-72{letter-spacing:-0.11em;}.cls-73{letter-spacing:-0.06em;}.cls-74{letter-spacing:-0.01em;}.cls-75{letter-spacing:0em;}.cls-76{letter-spacing:-0.02em;}.cls-77{letter-spacing:0em;}.cls-78{letter-spacing:-0.02em;}.cls-79{letter-spacing:0em;}.cls-80{letter-spacing:0em;}</style></defs><path class="cls-1" d="M153.72,168.51c-6.43,2.11-12.58,5-19.4,6-5.85.84-11.22-.45-16.41-2.86-9.61-4.44-19.13-4.65-28.78-.07-7.85,3.71-15.22,4.57-23.46-.59-8.52-5.33-17.68-2.39-25.91,2.3-3.66,2.08-7.23,3.27-11.34,2.15-2.58-.71-3.39-1.6-1.39-4.34,12.2-16.77,24.53-33.44,38.07-49.18,1-1.12,2.13-2.12,2.29-3.73,4.21-7,9.74-12.86,17-16.65,3.8-2,7.74-.57,10.9,2.39s5.8,6.75,8.55,10.24c3.32,4.69,7.17,9,10.61,13.55,1.83,2.45,3.58,2.73,6.23,1,3-2,5.87-4.13,8.89-6.07a1.59,1.59,0,0,1,1.17.77c1.62,10.58,3.66,21.08,5.63,31.6-1-10-4.54-19.62-5.15-29.73a3.41,3.41,0,0,1,.52-1.38c9-4.56,16.65-.58,24.17,4,1.65,1,2.92,2.9,5.27,1.84a1.83,1.83,0,0,1,1.61,1.26,47.08,47.08,0,0,1-3.31,16.95c-1.8,4.81-2.77,10-5.34,14.43C152.87,164.5,155,166.55,153.72,168.51Z"/><path class="cls-2" d="M69.15,43.09C72,36.05,77,30.53,82.23,25.18c7.32-1.84,14.79-1.59,22.25-1.59q36.6,0,73.19,0c8.09,0,16.2-.37,24.26.8a45.47,45.47,0,0,1,13.93,17.88c0,2.47-1.91,2.84-3.73,3.21a23,23,0,0,1-4.47.25q-65.25,0-130.5,0C74.3,45.71,71,46.38,69.15,43.09Z"/><path class="cls-3" d="M201.93,24.41c-.19.85-.49,1.67-1.54,1.6-29.59-1.91-59.21-.32-88.81-.82-6.62-.11-13.25.13-19.87-.07-3.17-.1-6.32,2.7-9.48.06C114.18-7.94,170.66-8.58,201.93,24.41Z"/><path class="cls-4" d="M61.18,62.84c.18-4.35,2.07-8.14,4-11.9,4.23,2.29,8.78,2.67,13.5,2.63,14-.11,27.91,0,41.86-.06,23.9-.19,47.79.1,71.69,0,9.62,0,19.25.33,28.85-.72A28.07,28.07,0,0,1,225,64.88c.64,5.55-.09,6.3-6.37,6.51a38.09,38.09,0,0,1-6.42-1.4c-4.76-2.28-9.6-4.17-15-2.74C193.31,67,190,69,186.33,69.66a1.74,1.74,0,0,1-1.62-1.22c.94-3.31,4.37-4.06,6.17-6-4.24.61-7.24,5.14-12.19,4.9-.79.37-1.37,1.07-2.21,1.38a3.81,3.81,0,0,1-3.81-1.13c-2.41-3.51-5.87-5.13-9.93-5.59.46,1.76,2,3.43.31,5.28-2.06.44-3.62-.73-5.25-1.66-4.11-3.4-8.88-3.8-13.86-3.06a.69.69,0,0,0,.41.82c1.1,1,4.44.8,1.83,3.62-2.37,1.5-5,1.62-7.69,1.63q-35.09.09-70.17,0c-2.85,0-6.24.52-7.43-3.37A3.1,3.1,0,0,1,61.18,62.84Z"/><path class="cls-5" d="M221.07,52.81c-2.32,2.4-5.32,2.3-8.3,2.3H156c-27.3,0-54.6,0-81.9,0-3.46,0-7.58.74-8.94-4.12a16.74,16.74,0,0,1,4-7.85c1.79,1.1,3.78,1,5.79,1q67.57,0,135.15,0c2.07,0,4.44.66,5.77-1.83C218.91,45.15,220.16,48.89,221.07,52.81Z"/><path class="cls-6" d="M61.18,62.84c-.11,3.2,1.47,4.29,4.6,4.28q37.57-.11,75.14,0a14,14,0,0,0,6.14-1.68c5.36-.34,8.62,3.54,12.49,6.2.9.94,2.16,2,1.36,3.31-.91,1.48-2.61.87-4,.63a22.34,22.34,0,0,0-11-.1c-5.72,1.38-11.5,2.62-16,6.92a20,20,0,0,1-8.3,1.26q-26.84,0-53.67,0c-1,0-2,0-3-.09-5.59-.49-6.54-1.75-5.8-7.7C59,71.38,59.33,67,61.18,62.84Z"/><path class="cls-7" d="M216.15,122C208,137.27,195.61,148,180.47,155.75c-.72.38-1.48.72-2.22,1.07a2.74,2.74,0,0,1-2.36-1.57c-3-5.66-7.94-10.11-10.06-16.31.66-6.29.33-12.77,3.63-18.55,14.38,0,28.76-.11,43.14.15A4.41,4.41,0,0,1,216.15,122Z"/><path class="cls-8" d="M216.15,122,182,122c-4.27,0-8.56.24-12.73-1-1.58-6.7-.1-13,2.44-19.19,4.52-2.33,9.65-.36,14.27-2a12.76,12.76,0,0,1,3.42-.41c8.45.46,16.91,0,25.35.26,4,.12,7-3.11,11-2.55C224,106,221.26,114.44,216.15,122Z"/><path class="cls-9" d="M15.19,188.32c1.91-3.62,2.75-6.41,7.52-3.43,5.91,3.69,12.37,2.59,18.41-.89,9-5.21,18-6.74,27.47-.46,6.42,4.23,13.49,2.56,20-.6,7.65-3.72,15.54-4.81,23.69-2.63,4,1.07,7.6,3.36,11.57,4.42,8.38,2.24,16.64.55,24.19-3s14.21-3.1,21,1.68c5.86,4.15,12.55,5.13,18.78,1.51,4.62-2.68,5.93-.71,7.29,3.4Z"/><path class="cls-10" d="M59.18,75.84c-.59,4.87,1.83,6.3,6.39,6.27,19.39-.14,38.78,0,58.17-.1a57.29,57.29,0,0,0,7.32-1,1,1,0,0,1,1.23-.18c1,1.29,2.12,2.5,2.06,4.29a67.08,67.08,0,0,1-8.3,6.23c-3.47.64-6-3.53-10.56-1C112.7,92,107.55,91,103.54,92c-.32.06-.72.35-.93.26-.61-.24-1.15,0-.5.09s-.38.32.25.15a19.37,19.37,0,0,1,11.26.08c1.27,1.49,0,2-1,2.36-1.52.56-3.2.43-4.71,1.08-3.12.31-4.92,2.85-7.32,4.39-12.07,2.2-24.17-.9-36.24.24-2.16.2-3.5-.43-3.92-2.63C58.79,90.7,57.26,83.36,59.18,75.84Z"/><path class="cls-11" d="M156.72,176.59c-5.24-.67-9.51,3.31-14.63,4.62-8.52,2.17-16.59,2.33-24.67-1.6-8.88-4.31-18-4.15-26.93-.12-8.65,3.9-16.5,4.64-25.4-.63-8-4.71-16.8-1.85-24.6,2.47-5.75,3.19-11.4,4.49-17.37.92-1.15-.69-3-1.29-1.62-3.29,1-1.41,1.46-3.27,4.09-1.88,5.59,2.95,10.73,1.26,16-1.73,8.29-4.76,16.81-6.71,25.62-.67,5.47,3.76,11.51,3.6,17.59,1.33,5.57-2.07,10.88-4.93,17-5.24a28.57,28.57,0,0,1,14.92,3.14c10.52,5.51,21.1,4,31.14-.57,7.72-3.51,14.26-3.22,20.82,1.91,5.35,4.18,11.23,4.78,17.24,1.75,2-1,2.76-.75,3.83,1,1.24,2.07.27,2.89-1.39,3.82-6.07,3.37-12,3.37-17.8-.58C166.46,178.48,162.21,176.46,156.72,176.59Z"/><path class="cls-12" d="M60.39,98c.92.54,1.21,1.91,2.81,1.57,8.76-1.89,17.46.42,26.2.58,2.18,0,4.22.57,6.08-.84,2.23-1.68,4.07.12,6.06.58.75,1.71,1.34,1.86,3.4,1.08,1.34-.5,2.84-1.3,3.54.88,0,1.26-1.26,2.22-.88,3.69,2.2-1.09,2.51-4.33,5.33-4.57,5.34-.27,4.08,4,4.85,7a4.76,4.76,0,0,1,.19,3c.62-.61.15-1.47.45-2.16.58-1.79.33-3.73,1-5.49,1.4-2.24,3.31-1.74,5.27-1a3.5,3.5,0,0,1,1.16,1,16.44,16.44,0,0,1,2.32,7.18,4.24,4.24,0,0,1-1,2.91c-4.37,2.71-9.1.75-13.65.9-3.47.11-6.94-.09-10.36.63-2.09-2.54-4.22-5.05-6.25-7.63-5.12-6.51-10.71-7.26-17-1.7-4.44,3.93-8.39,8.4-12.56,12.63C63.4,112,61.51,105.16,60.39,98Z"/><path class="cls-13" d="M166.82,139.89l11.43,16.93c2.43,4.67,4.73,9.41,7.35,14,1.26,2.2.7,3.14-1.36,4.13a12,12,0,0,1-13.05-1.18,34.35,34.35,0,0,0-11.06-5.39c-1.37-.42-1.4-1.35-.59-2.2,2.33-2.4,2.19-5.37,2.15-8.35A42.36,42.36,0,0,1,164,142.25C164.65,141.15,165.21,139.88,166.82,139.89Z"/><path class="cls-14" d="M225.71,97.05c-11.82,6.84-24.39,4-36.83,2.8-.73-2.2.73-4.11.82-6.21.31-2.26,1.08-4.46.34-6.81-1.12-3.52,1.07-4,3.73-3.7,3.08.33,5.42,2.05,7.68,4.09,1.57,1.42,2.73,4,5.64,2.87,1.18-1.8,1.22-4.37,3.63-5.31,1.59-.23,2.39,1,3.33,1.88,1.35,1.23,2.37.61,3.44-.33,3.25-.23,6.22-1.62,9.36-2.28C227.36,88.46,226.56,92.76,225.71,97.05Z"/><path class="cls-15" d="M165.07,142c-1.89,6.35-2.26,12.88-2.15,19.43,0,2.54.43,4.86-3,5.53-1.19.23.51.86.23,1.41-2.14.55-4.26,1.48-6.43.16-2.84-2.52-1.26-4.74-.14-7.62,3.76-9.64,7-19.49,8.63-29.78-.08-9.56,3.52-18.48,4.92-27.79.31-2,.55-4.39,2.86-5.52,1.06,0,1.53.62,1.86,1.49C169,113.43,168.19,127.88,165.07,142Z"/><path class="cls-16" d="M226.85,84.05c-2.41,3.7-6.21,3-9.75,3.06a17.23,17.23,0,0,1-7.45-6.22c.51-2.26,2.55-1.42,4.35-2.08a18.19,18.19,0,0,0-9.87-3.53c-4.33-.58-8.84,1.3-13.06-.93-.41-2.89,2.38-2.2,3.62-3.25A39.29,39.29,0,0,1,208.5,69a8.63,8.63,0,0,1,1.42.34,57.77,57.77,0,0,1,7.92,3.51c.16-1.06-.46-1.76-.3-2.57,3.54-.3,8.14.86,7.43-5.35A46.76,46.76,0,0,1,226.85,84.05Z"/><path class="cls-17" d="M161.33,130c-.36,2.57-1.25,2.88-3.28,1.1a32,32,0,0,0-15.69-7.68c-3.56-.64-6.82.57-10.23.52-2.62-5.08-2.68-10.79-4-16.2a12.17,12.17,0,0,1-.06-5.27c.86-2.36,3.11-3.27,4.6-1.82,2.47,2.41,5.87,2.61,8.43,4.56,2.57,2.19,5.15,4.38,6.86,7.34.32-.94.13-2.12.81-3.08,5.24-4.7,14.45-4.12,17.12,1.07C164.74,117.12,164,123.81,161.33,130Z"/><path class="cls-18" d="M103.19,114.87c1.49-2.29,3.66-2.14,6.08-2.08,5.89.13,11.78.89,17.67.19,2.79,2.92,3.3,6.34,2.26,10.11-2.33,5-8,5.76-11.78,8.93-.87.72-1.9-.92-2.59-1.82Q109,122.55,103.19,114.87Z"/><path class="cls-19" d="M132,125a180.1,180.1,0,0,0,6.83,28.35c.6,1.76,1.33,3.34-1,3.88s-4.69-.64-4.59-3c.42-10.52-2.91-20.6-3.3-31-.39-.81-.46-1.82.39-2.11,1-.35,1.31.7,1.36,1.51A4.73,4.73,0,0,0,132,125Z"/><path class="cls-20" d="M161.33,130q1.88-9.51,3.73-19c.55-7.56,1.31-15.08,4.76-22a1.34,1.34,0,0,1,1.56.25c1.63,3.28.36,6.13-1.3,8.93-3.15,10.06-4.45,20.54-7,30.74a17.63,17.63,0,0,1-.9,2.23Z"/><path class="cls-21" d="M132,125c-.31-.7-.6-1.41-.92-2.1a9,9,0,0,0-.56-.94l-.56,1.26a1.65,1.65,0,0,0-.73-.08Q128.07,118,126.94,113c.1-1,.19-2,.29-3.08.76-.59.94-1.76,2-2.05,1.31,5.31,2.84,10.57,2.89,16.11C132.08,124.29,132,124.62,132,125Z"/><path class="cls-22" d="M157.1,74.28c1.05.27,2.32,1.27,3.11.41s-.81-1.35-1.18-2.11c-1-2-1.58-4.14-2.78-6.07-.81-1.32-.1-2.15,1.55-1.54a9.44,9.44,0,0,1,4.91,2.17c1.49-1,3.08-.09,5.61-.65-5,.5-4.51-5-8.14-5.43,3.85-1.65,9.91,1.09,12.83,5.8,1.9,5.56-4.22,4.65-5.95,7.3-.14.21-.9-.3-1.39,0a1.76,1.76,0,0,1,.14.39c0,5.64-4.12,4.83-7.68,4.91-1.42.07-2.84.66-4.25,0-1.67-1.36-1.95-2.82-.3-4.41C154.65,74.28,156,74.86,157.1,74.28Z"/><path class="cls-23" d="M157.82,78.17c2.23-.38,4.91,1.46,6.64-1.54.48-.84,1.62-1.26.23-2.19-2.51-1.66.62-1.75.68-1.74,3.08.74,4.06-3,6.76-3.19.35,0,.59-1.72.88-2.65,1.21.7,2.38,1.54,3.91,1a8.71,8.71,0,0,1,2.41,3.59,2.84,2.84,0,0,1-.19,1.29c-1.07,1.92-1.6,4.26-4,5.2a7.56,7.56,0,0,1-3.34.72c-.65,0-1-.74-1.73-.66,2.12,3.59-.34,3.37-2.64,3.06-2.46-.34-4.95.06-7.41-.41C159,80.17,157.84,79.66,157.82,78.17Z"/><path class="cls-24" d="M157.8,65c-1.25.25-1.87.76-.59,1.79A4.89,4.89,0,0,1,159,72.58a65.57,65.57,0,0,0-12-7.17c-1.72-.68-3.87-.42-5-2.31,2.26-1.45,4.38.83,6.61.22-2.22.45-4.34-1.72-6.59-.19l-.77-1C144.81,59.49,154.86,61.21,157.8,65Z"/><path class="cls-25" d="M194.89,72.08c-.82,1.59-3.45,0-3.9,2.2.87,3-2.65,3.8-3.17,6.12a2.13,2.13,0,0,1-2-.09c-1.76-1.69-2.15-4.43-6.22-3.81-3.36.51-.48-2.83-.61-4.43v0c1.45-1.66,2.52-3.74,4.88-4.39a1.62,1.62,0,0,1,1.23.41,1.48,1.48,0,0,0,1,1.45A26.5,26.5,0,0,1,194,71.11,2.79,2.79,0,0,1,194.89,72.08Z"/><path class="cls-26" d="M185.1,68.11l-1.15,0c-.59.32-1.29.25-1.9.55-1.23.62-1.92,2.73-3.74,1.65s.12-2.81-.62-4.12c6.2.62,10.23-6.35,17.27-5Z"/><path class="cls-27" d="M197.2,66.2c5.38-1.54,10.23,0,14.9,2.53-.27,1.21-1,1.74-2.22,1.38H210a14.87,14.87,0,0,0-8.93-.23c-1.84.53-3.78,1-5.52-.44C193.68,67.11,195.54,66.7,197.2,66.2Z"/><path class="cls-28" d="M197.2,66.2c-.55.87-2.76,1.07-1.17,2.83-.11,1.35-1.15,2.07-2,2.93-2.78-.35-5.63-.43-7.91-2.4A14.4,14.4,0,0,1,197.2,66.2Z"/><path class="cls-29" d="M209.88,70.11l2.23-1.37,5.43,1.49c.83,1.49,3.05,2,3,4.92Z"/><path class="cls-30" d="M160.18,61.06c4.47,0,4.79,5.58,8.81,6.38-2.17-.49-4.32,1.93-6.27-.3C164.14,64.17,161.48,62.89,160.18,61.06Z"/><path class="cls-31" d="M177.69,66.15c2.26.57.11,2.23,1,3.49,1.74-.13,2.92-3.31,5.25-1.57-1.73,1.25-2.14,4.12-5,4-1.15-1.17-2.48-2.26-2.07-4.2C177.17,67.31,177.43,66.73,177.69,66.15Z"/><path class="cls-32" d="M132.08,81.19l-1-.13c1.53-5.49,7.13-4,10.66-6.12,1.13-.67,2.87-.31,4.34-.42.44,3.15-2.91,3.54-4,5.55C138.82,81.46,135.59,82.59,132.08,81.19Z"/><path class="cls-33" d="M142.09,79c.27-2.42,3.23-2.45,4-4.45,3.64-1.62,7.35-.66,11-.24-.9,1-2.2.65-3.29,1-3,1.14-3.84,5.51-7.78,5.33C144.59,80.37,143.08,80.3,142.09,79Z"/><path class="cls-34" d="M165.07,142c.62-10.54,2.73-20.88,4.24-31.3.57-3.91,1.17-7.82,1.75-11.72.29-3.53,0-7.21,2.54-10.18a2.35,2.35,0,0,1,1.87,1.3,20,20,0,0,1-3,11.92c-1.87,6.18-2.11,12.64-3.18,19q-1.23,9.47-2.45,18.93C166.23,140.58,165.65,141.28,165.07,142Z"/><path class="cls-35" d="M172.45,102q1.2-6,2.39-12c-.23-3,1.45-4.48,4.17-5.11,4.5-1,6.61,1.34,7.63,5.38.76,3,.58,6.13.76,9.2a3.23,3.23,0,0,1-.34,1.53C182.29,102.7,177.33,101.8,172.45,102Z"/><path class="cls-36" d="M187.06,101a4.31,4.31,0,0,1-.09-.71c-.83-1.33-.49-2.81-.44-4.21.11-3.18,1.74-3.42,4.11-1.93,0,2.09-1,3.9-1.76,5.75Z"/><path class="cls-37" d="M125.06,103c-1.51.36-3-.92-4.55.08a1,1,0,0,1-1.31.21c-2.43-2.33-2.41-2.34-7.25-1.27a16,16,0,0,1-1.54,2.44c-1.31,1.43-2.19,4.81-4.52,3-1.23-.93,0-4.14,2.27-5.37-.51-1.8.18-3.91-1.89-5.32-.83-.56.44-1.29,1-1.79,1.72-1.75,4.64.55,6.17-1.84-2.61-1-5.31-.86-8-.73-.92,0-2.47.71-2.11-1.37,4.52-2.08,9.19-2.06,14-.79.25-2.25-2.45-2.14-2.6-4.58L125.9,91C126.61,95,127.65,99.13,125.06,103Z"/><path class="cls-38" d="M125.06,103c.86-4-.37-8.08.84-12a18.1,18.1,0,0,1,8.1-6.25,1.37,1.37,0,0,1,1.27.31c0,2.93-2.72,4.64-3.23,7.33-.06.31-.41.54-.25.9a4.36,4.36,0,0,1,3.33-2.69s.22,0,0-.06a7,7,0,0,1-1-.15c-.86-2.35,1.09-3.21,2.32-4.45a2.84,2.84,0,0,1,1.34-.31,6.7,6.7,0,0,1,1.89.74c1.25.79,3.2.55,3.67,2.48-.72,1.61.76,4.31-2.33,4.76a6.21,6.21,0,0,1-1.43-.25c-.88-.27-2.09.09-2.16.58-.11.82,1.62.49,1.73,1.61-1,1.9-2.4,1.12-3.65.7,1.93,1.45,5,.89,6.72,3.11.22,1.63-2,1.11-2.11,2.38.33,1.26,1.48,2.14,1.48,3.5a1.77,1.77,0,0,1-.61,1.11c-1.8-.08-3-3.67-5.38-.78-.71.86-1.28-.09-1.37-1-.36-3.83-2.32-4.18-5.24-2.35-1.11,1-2.25,2-3.91,1.07Z"/><path class="cls-39" d="M107.3,95c0,.61-1.26,1.72.28,1.67,1.36,0,2.7-1.17,4.11.25-.72,1.83-2.71.54-3.75,1.45.72,1.25,5,2.26.22,3.74-4-2.5-4.74,2.37-7.26,3.31-1.93-2.1,2.75-3.41.64-5.49C101,95.36,105,96.16,107.3,95Z"/><path class="cls-6" d="M135.1,85.05l-1.1-.34c-1.28-.82-2.2-1.85-1.92-3.52,3.29-1,6.85-.7,10-2.22,1.32.25,2.84-.45,3.95.83a17.15,17.15,0,0,1-8,5.94l-.93.35C136,86.6,135.54,85.86,135.1,85.05Z"/><path class="cls-40" d="M103.34,91.05c3.18,1.66,7.16-.57,10.13,2.1-5-.33-10-1.36-14.59,2.15C99.48,92.51,101.3,91.64,103.34,91.05Z"/><path class="cls-41" d="M112,102l6.67-3.26c1.2,1.12-1.49,4.19,1.89,4.32l-1.32,6.15c-2.75-1-1.26-2.93-1.3-4.57-.93,1.2.48,3.06-.85,4.23a3.37,3.37,0,0,1-1-3.14C116.53,102.35,114.8,101.6,112,102Z"/><path class="cls-42" d="M125.13,103.22l3.92-1.08c.06,1.91.13,3.81.19,5.71-.23,1.12-.58,2.11-2,2.05Z"/><path class="cls-43" d="M117,108.87c.08-1.79.17-3.58.28-5.86,1.51,2.18,0,4.67,1.87,6.2-.11.85.36,2.33-.68,2.31S117.32,109.9,117,108.87Z"/><path class="cls-44" d="M190.64,94.1c-5.6-.57-3,3.74-3.67,6.14-2.16-2.71-.81-5.94-1.2-8.89-.56-4.29-2.49-6.21-6.8-5.59-.87-.44-2.67,0-1.92-2,.56-.59,1.56-1,1.55-1.85,0-4.35.51-6.67,4.26-1.69.57.74,2.13-.55,3.27-.17H188c1.69-2,4.14,1.72,5.77-.77,3.83-.72,7.65.6,11.48.07a4.75,4.75,0,0,1,1.33.45c1,1,3.31,1.27,2.43,3.6a3.68,3.68,0,0,1-3.68.19c2.18,2.2,3.39,4.45,3.14,7.26-2.69,4.44-4.71.86-6.11-.89-3-3.72-6.34-6.13-11.91-6C192.4,87.53,191.58,90.82,190.64,94.1Z"/><path class="cls-45" d="M209.83,83.89,205.92,80c1.77-1.19,3-.14,4.1,1.08,3.18,1,5.12,3.53,7.08,6,.15.78.67,1.78.37,2.28-.57.91-1.3.16-1.91-.37-1.52-1.32-3.42-2.22-4.44-4.08-.82,0-1.67-.06-1.85-1.14-.1-.66.43-.79.15-.19S210.48,83.73,209.83,83.89Z"/><path class="cls-16" d="M209.83,83.89l1.29,1c-1.74,1.58-2.09,3.8-2.71,5.9-.33-3.53-3.43-5.37-5.4-8.39C205.73,82.25,207.75,83.24,209.83,83.89Z"/><path class="cls-46" d="M173.93,89.07c-2.05,3-.82,6.91-2.87,9.89l-1-.82c-.51-3.12,1.65-6,.8-9.17-.62-1.65.18-2.53,1.7-2.45S174.89,87.48,173.93,89.07Z"/><path class="cls-47" d="M194.06,79.86c-1.93,3.68-4.05,1-6.11.18-1-1.46-1.18-2.67.81-3.44,1.08-.42,2.17-.9,2.23-2.32,4.59-.34,9.17-.87,13.77-.29a.89.89,0,0,1,.47,1.13c-2.64,3.69-6.74,2.83-10.39,3.33A4.63,4.63,0,0,0,194.06,79.86Z"/><path class="cls-48" d="M204.9,74.9a4,4,0,0,0-.14-.91,16.89,16.89,0,0,1,12.53,6.27c-2.75,1.55-5.23-1.64-7.27.85L205.92,80l.06,0c-1.16-1.26-3.42.57-4.28-1.53a2.49,2.49,0,0,1,2.81-2.06C206.92,76.5,204.21,75.29,204.9,74.9Z"/><path class="cls-49" d="M194.05,72A2.7,2.7,0,0,1,196,69a3.32,3.32,0,0,0,4,.42c3.47-1.54,6.74-1,10,.66-5.13-.18-10.08,1-15.07,2A4.6,4.6,0,0,1,194.05,72Z"/><path class="cls-50" d="M170.14,89c-1.75,7.32-2.58,14.86-5.08,22-.33-.74-.45-1.77-1-2.18-3.07-2.19-12.42-.75-15,2.19-1.59.47-2.19-.61-2.75-1.73a3.71,3.71,0,0,1-.21-1.94c1.06-4.14,1.08-4.14-2.45-7-.58-.76-1.14-1.52-.64-2.55,1.81-1.37,3.64-.08,5.64.06-2.3-1-3.94-2.17-3.08-4.87a4.79,4.79,0,0,1,2.12-1.94c6.08-2.65,11-7.56,17.65-9.07a6.6,6.6,0,0,1,3.21.32C171.66,83.93,171,86.42,170.14,89Z"/><path class="cls-51" d="M146.61,108.69l2.45,2.31c.21,1.4.43,2.8.75,4.87L141,106.3a1,1,0,0,1,.41-.5,8.7,8.7,0,0,0,3.87-1.21C147.5,105.4,146.14,107.34,146.61,108.69Z"/><path class="cls-52" d="M170.14,89c-.43-2.16.74-4.89-2.17-6.17,1.46-1.55,4.07-2,4.33-4.7l2.68-1c2.05,2,.38,5,2,7l2,1.65c-2.48.31-3.2,2.35-4.13,4.19l-.91-.88c.07-1-.16-1.94-1.43-2s-1.54.85-1.62,1.88l-.37,0Z"/><path class="cls-53" d="M138.06,85.74a19.26,19.26,0,0,1,8-5.94c1.56-.89,3.64-.93,4.17-3.39.39-1.86,2.19-1.35,3.6-1.14-1,1.46-.21,2.73.42,4-2.19,2.75-5.58,3.11-8.55,4.3-2.76-.22-3.59,3-6,3.37L139,87A1.06,1.06,0,0,1,138.06,85.74Z"/><path class="cls-54" d="M145.25,83l9-3.67,3.6-1.12,2.33,2.07a1.66,1.66,0,0,1-1.15,1.6,9.09,9.09,0,0,1-1.35.4c-2.36.21-4.07,1.91-6.17,2.67s-4.56,1.88-6.8-.07A1.47,1.47,0,0,1,145.25,83Z"/><path class="cls-55" d="M177,84.11c-.84-.45-2.86.88-2.31-1.72a36,36,0,0,0,.34-5.32c2.6-.66,1.5-4.28,4-5,.94,1.14-1.3,6.6,3.67,2.73.19-.15,3.78,2.41,3.46,5.25-.85,1.37-2.92.74-3.51,2.61-.82-1.66-1.45-3-2.35-4.8C178.8,80.14,183.2,85.32,177,84.11Z"/><path class="cls-56" d="M159.12,81.08l1-.84c3.27-.67,6.54-.95,9.9.31.55-1.82-2.32-2.81-.7-4.52l2.94,2.08c1.67,4.44-.75,5.11-4.33,4.7l-3.05,0c-1.48-.46-2.86.22-4.29.37S158,83,159.12,81.08Z"/><path class="cls-57" d="M142.05,63.13c3.25-2.9,6.24.64,9.39.22-3.23,2.06-6.25-.63-9.41-.25Z"/><path class="cls-56" d="M145.07,85.1c4.94.8,8.17-4,12.86-3.95.88.79.95,2.23.28,2.55-3.94,1.89-6.6,5.6-10.63,7.31-1.86.08-3.49-.34-4.53-2.05-.94-1.5-3.18-.32-4.05-2h.05C141.19,86.79,142.71,84.62,145.07,85.1Z"/><path class="cls-58" d="M146.61,108.69c-1.12-1,0-2.85-1.49-3.64-2.47-.87-4.44-2.55-6.5-4.07.79-1.69,2.34-.66,3.51-1,.83-.67,1.65-.35,2.47,0,3.12,1.29,5,3.85,7.33,6.85C149.71,107.12,146.4,104,146.61,108.69Z"/><path class="cls-59" d="M143.05,89l5.54,1.1a1.56,1.56,0,0,1-.87,2l-1.15,1c-1.84.73-3.18,3.25-5.7,1.6a1.49,1.49,0,0,1,.18-1.34C143.9,92.89,140.06,89.37,143.05,89Z"/><path class="cls-60" d="M138.62,101a8,8,0,0,1,6.5,4.06c-.49,3.91-2.44.64-3.7.76C140.75,104,138.38,103.27,138.62,101Z"/><path class="cls-61" d="M144.6,100l-2.47,0c-2.1-1.58-5.16-1.09-7-3.41.91-1.46,3.2.17,4-1.59l.68-.19a4.67,4.67,0,0,1,3.08,3.54Z"/><path class="cls-62" d="M133.86,90.15c1.5.33,2.56-1.64,4.59-.59-3.79,1.38-6,4.38-9.07,6.53l2-4.11C131.87,90.9,132.33,89.81,133.86,90.15Z"/><path class="cls-63" d="M133.86,90.15,131.41,92c0-3,2.46-4.61,3.69-6.93l2,1Z"/><path class="cls-64" d="M141.05,93.36l-.05.46c-.23,1.08-1.42.6-1.95,1.2l0,0-3.68-.28C137,92.09,138.25,89.63,141.05,93.36Z"/><path class="cls-45" d="M201.8,78.21c1,1.37,3.29.1,4.18,1.87-4,1.14-7.95,0-11.92-.22L193,78C195.94,76.91,198.86,77.89,201.8,78.21Z"/><path class="cls-65" d="M201.8,78.21c-3,1.1-5.86-1-8.82-.19.08-1,.54-1.23,1.61-1.07a14.42,14.42,0,0,0,10.31-2c1,1,2.85.91,3.39,2.65C206.2,79,203.72,76.1,201.8,78.21Z"/><path class="cls-66" d="M147.72,92.09l.86-2c2-2.57,4.09-4.85,7.32-5.9,1.27-.42,2.75-1.07,2-3l1.19-.07c0,2.32,1.47,1.22,2.24.76,1.62-1,2.72-.68,3.56,1C158.94,85.44,154,90,147.72,92.09Z"/><path class="cls-38" d="M139.05,95l1.95-1.2c2.15,2,3.54-1.82,5.57-.72-1.25,4.79,4.41,2.82,5.46,5.82-3.18,1.66-6.13-1.69-9.18-.57C140.82,98.1,140.91,95.46,139.05,95Z"/><path class="cls-38" d="M145.07,85.1c-1.49,2.26-3.78,2-6,1.9,1.94-1.53,2.91-4.57,6.2-4Z"/><text class="cls-67" transform="translate(0 221.82)">Cer<tspan class="cls-68" x="69.44" y="0">r</tspan><tspan x="85.52" y="0">o </tspan><tspan class="cls-69" x="117.72" y="0">V</tspan><tspan x="140.04" y="0">e</tspan><tspan class="cls-70" x="161.4" y="0">r</tspan><tspan x="177.48" y="0">de</tspan></text><text class="cls-71" transform="translate(16.32 251.99) scale(0.94 1)"><tspan class="cls-72">T</tspan><tspan x="13.5" y="0">a</tspan><tspan class="cls-73" x="29.4" y="0">r</tspan><tspan x="40.14" y="0">a</tspan><tspan class="cls-74" x="56.04" y="0">p</tspan><tspan class="cls-75" x="73.86" y="0">o</tspan><tspan class="cls-76" x="91.83" y="0">t</tspan><tspan x="101.64" y="0">o </tspan><tspan class="cls-77" x="126" y="0">Ho</tspan><tspan class="cls-78" x="165.66" y="0">t</tspan><tspan class="cls-79" x="175.47" y="0">e</tspan><tspan class="cls-80" x="191.43" y="0">l</tspan></text></svg>